<?xml version="1.0" encoding="utf-8"?>
<!-- Generator: Adobe Illustrator 18.0.0, SVG Export Plug-In . SVG Version: 6.00 Build 0)  -->
<!DOCTYPE svg PUBLIC "-//W3C//DTD SVG 1.1//EN" "http://www.w3.org/Graphics/SVG/1.1/DTD/svg11.dtd">
<svg version="1.1" id="Layer_1" xmlns="http://www.w3.org/2000/svg" xmlns:xlink="http://www.w3.org/1999/xlink" x="0px" y="0px"
	 width="403px" height="403px" viewBox="0 0 403 403" enable-background="new 0 0 403 403" xml:space="preserve">
<g>
</g>
<g>
	<path fill="#555555" d="M265.6,402.7c-10.2,1.9-13.6-4.6-13.6-10c0-6.7,0-29.1,0-56.8c0-19.4-6.3-31.7-13.6-38.2
		c44.8-5.1,91.9-22.6,91.9-101.9c0-22.6-7.9-41.2-20.7-55.4c2.1-5.4,8.9-26.4-2.1-54.9c-16.8-5.4-55.2,21.2-55.2,21.2
		c-16-4.6-33.2-7-50.2-7s-34.3,2.4-50.2,7c0,0-38.5-26.6-55.5-21.2c-10.7,28.5-3.9,49.5-1.8,54.9c-12.8,14.3-20.7,32.8-20.7,55.4
		c0,79.1,46.8,96.8,91.6,101.9c-5.8,5.4-11,14.3-12.8,27.7c-11.5,5.4-40.8,14.5-58.4-17.2c-11-19.6-30.9-21.2-30.9-21.2
		c-19.6-0.3-1.3,12.6-1.3,12.6c13.1,6.2,22.2,30.1,22.2,30.1C96,366.6,152,354.2,152,354.2c0,17.2,0.3,33.6,0.3,38.5
		c0,5.4-3.7,11.8-13.9,10C58.6,375.2,1,297.8,1,206.6C1,92.5,91,0,202,0s201,92.5,201,206.6C403,297.8,345.4,375.2,265.6,402.7z"/>
</g>
</svg>
