<?xml version="1.0" encoding="utf-8"?>
<!-- Generator: Adobe Illustrator 18.0.0, SVG Export Plug-In . SVG Version: 6.00 Build 0)  -->
<!DOCTYPE svg PUBLIC "-//W3C//DTD SVG 1.1//EN" "http://www.w3.org/Graphics/SVG/1.1/DTD/svg11.dtd">
<svg version="1.1" id="Layer_1" xmlns="http://www.w3.org/2000/svg" xmlns:xlink="http://www.w3.org/1999/xlink" x="0px" y="0px"
	 width="234px" height="234px" viewBox="0 0 234 234" enable-background="new 0 0 234 234" xml:space="preserve">
<g>
	<path fill="none" stroke="#555555" stroke-width="26" stroke-miterlimit="10" d="M234,87c-69.7,0-21.7,93-91.8,93 M16.2,0v133.7
		c0,29,24.2,46.2,46.2,46.2c24,0,47.1-19.7,47.1-46.2c0-45.7-47.1-46.4-47.1-46.4"/>
</g>
<g>
	<rect x="-1" y="218" fill="none" width="255" height="36"/>
	<path fill="#555555" d="M8.4,232.8H2.2c-1,0-1.8-0.8-1.8-1.8v-11.2c0-1,0.8-1.8,1.8-1.8h6c2.8,0,4.2,1.8,4.2,3.7
		c0,1.8-1.1,3.1-2.5,3.4c1.6,0.2,2.8,1.8,2.8,3.6C12.7,231,11.2,232.8,8.4,232.8z M7.5,220.8H3.6v3.2h3.9c1.1,0,1.7-0.7,1.7-1.6
		C9.2,221.5,8.5,220.8,7.5,220.8z M7.6,226.7h-4v3.4h4c1.2,0,1.9-0.6,1.9-1.7C9.5,227.5,8.8,226.7,7.6,226.7z"/>
	<path fill="#555555" d="M23.6,227.2l2,3.4c0.1,0.2,0.2,0.5,0.2,0.7c0,0.7-0.6,1.5-1.5,1.5c-0.5,0-1.1-0.3-1.3-0.8l-2.5-4.6h-2.3
		v3.8c0,0.8-0.7,1.5-1.6,1.5c-0.8,0-1.5-0.7-1.5-1.5v-11.5c0-1,0.8-1.8,1.8-1.8h5.1c3.1,0,4.9,2,4.9,4.7
		C26.8,225.5,25.2,226.8,23.6,227.2z M18.2,220.9v4h3.3c1.3,0,2.2-0.7,2.2-2s-0.9-2-2.2-2H18.2z"/>
	<path fill="#555555" d="M40.5,232.9c-0.7,0-1.3-0.4-1.5-1l-0.6-1.6h-6.3l-0.6,1.6c-0.2,0.6-0.9,1-1.5,1c-1,0-1.6-0.8-1.6-1.7
		c0-0.2,0-0.4,0.1-0.6l4.3-11c0.4-1,1.4-1.7,2.4-1.7c1.1-0.1,2.2,0.6,2.7,1.7l4.3,11c0.1,0.2,0.1,0.4,0.1,0.6
		C42.2,232.1,41.5,232.9,40.5,232.9z M35.3,221.3l-2.3,6.3h4.6L35.3,221.3z"/>
	<path fill="#555555" d="M58.6,232.9c-0.9,0-1.6-0.7-1.6-1.6v-8.8l-4,9.8c-0.1,0.3-0.5,0.6-0.9,0.6c-0.4,0-0.7-0.2-0.8-0.6l-4-9.8
		v8.9c0,0.8-0.7,1.5-1.6,1.5c-0.8,0-1.5-0.7-1.5-1.5v-11.5c0-1,0.8-1.8,1.8-1.8c1.4-0.2,2.7,0.2,3.2,1.4l3,7.4l3-7.4
		c0.4-0.9,1.2-1.4,2.1-1.4c1.4-0.2,2.8,0.3,2.8,1.8v11.5C60.1,232.2,59.4,232.9,58.6,232.9z"/>
	<path fill="#555555" d="M76.8,232.8h-6.4c-1,0-1.8-0.8-1.8-1.8v-11.5c0-0.8,0.7-1.5,1.6-1.5c0.8,0,1.5,0.7,1.5,1.5v10.5h5
		c0.7,0,1.3,0.6,1.3,1.3C78.1,232.2,77.5,232.8,76.8,232.8z"/>
	<path fill="#555555" d="M91.5,232.9c-0.7,0-1.3-0.4-1.5-1l-0.6-1.6h-6.3l-0.6,1.6c-0.2,0.6-0.9,1-1.5,1c-1,0-1.6-0.8-1.6-1.7
		c0-0.2,0-0.4,0.1-0.6l4.3-11c0.4-1,1.4-1.7,2.4-1.7c1.1-0.1,2.2,0.6,2.7,1.7l4.3,11c0.1,0.2,0.1,0.4,0.1,0.6
		C93.2,232.1,92.5,232.9,91.5,232.9z M86.3,221.3l-2.3,6.3h4.6L86.3,221.3z"/>
	<path fill="#555555" d="M101.1,233.1c-4.5,0-6.6-2.5-6.6-6.1v-7.4c0-0.9,0.7-1.6,1.6-1.6c0.9,0,1.6,0.7,1.6,1.6v7.3
		c0,2,1.2,3.5,3.5,3.5c2.3,0,3.4-1.4,3.4-3.5v-7.3c0-0.9,0.7-1.6,1.6-1.6c0.9,0,1.6,0.7,1.6,1.6v7.4
		C107.7,230.6,105.6,233.1,101.1,233.1z"/>
	<path fill="#555555" d="M119.2,227.2l2,3.4c0.1,0.2,0.2,0.5,0.2,0.7c0,0.7-0.6,1.5-1.5,1.5c-0.5,0-1.1-0.3-1.3-0.8l-2.5-4.6h-2.3
		v3.8c0,0.8-0.7,1.5-1.6,1.5c-0.8,0-1.5-0.7-1.5-1.5v-11.5c0-1,0.8-1.8,1.8-1.8h5.1c3.1,0,4.9,2,4.9,4.7
		C122.4,225.5,120.8,226.8,119.2,227.2z M113.8,220.9v4h3.3c1.3,0,2.2-0.7,2.2-2s-0.9-2-2.2-2H113.8z"/>
	<path fill="#555555" d="M133.9,232.8h-7.4c-1,0-1.8-0.8-1.8-1.8v-11.2c0-1,0.8-1.8,1.8-1.8h7.4c0.7,0,1.3,0.6,1.3,1.4
		c0,0.7-0.6,1.4-1.3,1.4h-6.1v3.1h5.9c0.7,0,1.3,0.6,1.3,1.4c0,0.7-0.6,1.4-1.3,1.4h-5.9v3.3h6.1c0.7,0,1.3,0.6,1.3,1.3
		C135.3,232.2,134.7,232.8,133.9,232.8z"/>
	<path fill="#555555" d="M148.8,232.9c-0.6,0-1.2-0.3-1.6-0.8l-6.5-8.9v8.2c0,0.8-0.7,1.5-1.6,1.5c-0.8,0-1.5-0.7-1.5-1.5V220
		c0-1,0.9-2,2-2c0.7,0,1.3,0.3,1.7,0.9l6.2,8.5v-7.8c0-0.8,0.7-1.5,1.6-1.5c0.8,0,1.5,0.7,1.5,1.5V231
		C150.7,232,149.9,232.9,148.8,232.9z"/>
	<path fill="#555555" d="M158.9,233.1c-2.1,0-4.8-0.7-5.6-1.9c-0.2-0.2-0.2-0.5-0.2-0.7c0-0.8,0.7-1.5,1.5-1.5
		c0.3,0,0.6,0.1,0.8,0.2c1,0.7,2.2,1.1,3.7,1.1c1.7,0,2.6-0.8,2.6-1.6c0-2.6-8.4-0.8-8.4-6.3c0-2.4,2.1-4.5,5.6-4.5
		c1.7,0,4.2,0.6,5,1.6c0.2,0.2,0.3,0.5,0.3,0.7c0,0.8-0.8,1.4-1.6,1.4c-0.3,0-0.5-0.1-0.8-0.2c-1-0.6-2.2-0.8-3.2-0.8
		c-1.3,0-2.1,0.6-2.1,1.5c0,2.3,8.4,0.8,8.4,6.2C164.7,231,162.8,233.1,158.9,233.1z"/>
	<path fill="#555555" d="M177.7,233.1c-2.1,0-4.8-0.7-5.6-1.9c-0.2-0.2-0.2-0.5-0.2-0.7c0-0.8,0.7-1.5,1.5-1.5
		c0.3,0,0.6,0.1,0.8,0.2c1,0.7,2.2,1.1,3.7,1.1c1.7,0,2.6-0.8,2.6-1.6c0-2.6-8.4-0.8-8.4-6.3c0-2.4,2.1-4.5,5.6-4.5
		c1.7,0,4.2,0.6,5,1.6c0.2,0.2,0.3,0.5,0.3,0.7c0,0.8-0.8,1.4-1.6,1.4c-0.3,0-0.5-0.1-0.8-0.2c-1-0.6-2.2-0.8-3.2-0.8
		c-1.3,0-2.1,0.6-2.1,1.5c0,2.3,8.4,0.8,8.4,6.2C183.6,231,181.6,233.1,177.7,233.1z"/>
	<path fill="#555555" d="M195,220.9h-3.1v10.5c0,0.9-0.7,1.6-1.6,1.6c-0.9,0-1.6-0.7-1.6-1.6v-10.5h-3.1c-0.7,0-1.4-0.6-1.4-1.4
		c0-0.7,0.6-1.3,1.4-1.3h9.3c0.7,0,1.3,0.6,1.3,1.4C196.3,220.3,195.7,220.9,195,220.9z"/>
	<path fill="#555555" d="M207.4,232.8h-7.4c-1,0-1.8-0.8-1.8-1.8v-11.2c0-1,0.8-1.8,1.8-1.8h7.4c0.7,0,1.3,0.6,1.3,1.4
		c0,0.7-0.6,1.4-1.3,1.4h-6.1v3.1h5.9c0.7,0,1.3,0.6,1.3,1.4c0,0.7-0.6,1.4-1.3,1.4h-5.9v3.3h6.1c0.7,0,1.3,0.6,1.3,1.3
		C208.7,232.2,208.1,232.8,207.4,232.8z"/>
	<path fill="#555555" d="M212.6,232.9c-0.8,0-1.5-0.7-1.5-1.5v-11.9c0-0.8,0.7-1.5,1.6-1.5c0.8,0,1.5,0.7,1.5,1.5v11.9
		C214.1,232.2,213.4,232.9,212.6,232.9z"/>
	<path fill="#555555" d="M228.2,232.9c-0.6,0-1.2-0.3-1.6-0.8l-6.5-8.9v8.2c0,0.8-0.7,1.5-1.6,1.5c-0.8,0-1.5-0.7-1.5-1.5V220
		c0-1,0.9-2,2-2c0.7,0,1.3,0.3,1.7,0.9l6.2,8.5v-7.8c0-0.8,0.7-1.5,1.6-1.5c0.8,0,1.5,0.7,1.5,1.5V231
		C230.2,232,229.4,232.9,228.2,232.9z"/>
</g>
</svg>
