<?xml version="1.0" encoding="utf-8"?>
<!-- Generator: Adobe Illustrator 18.0.0, SVG Export Plug-In . SVG Version: 6.00 Build 0)  -->
<!DOCTYPE svg PUBLIC "-//W3C//DTD SVG 1.1//EN" "http://www.w3.org/Graphics/SVG/1.1/DTD/svg11.dtd">
<svg version="1.1" id="Layer_1" xmlns="http://www.w3.org/2000/svg" xmlns:xlink="http://www.w3.org/1999/xlink" x="0px" y="0px"
	 width="403px" height="403px" viewBox="0 0 403 403" enable-background="new 0 0 403 403" xml:space="preserve">
<circle fill="#555555" cx="202" cy="201.3" r="201"/>
<g>
	<path fill="#FFFFFF" d="M317.4,158.5c0.2,2.5,0.2,4.8,0.2,7.3c0,73.5-56,158.2-158.2,158.2c-31.5,0-60.8-9.1-85.3-25
		c4.5,0.5,8.8,0.7,13.4,0.7c26,0,49.9-8.8,69.1-23.7c-24.5-0.5-44.9-16.5-52-38.6c3.5,0.5,6.9,0.8,10.5,0.8c5,0,10-0.7,14.6-1.8
		c-25.5-5.1-44.6-27.5-44.6-54.5c0-0.2,0-0.5,0-0.7c7.4,4.1,16,6.8,25.2,7.1c-14.9-10-24.8-27-24.8-46.3c0-10.3,2.8-19.7,7.6-28
		c27.3,33.8,68.5,55.8,114.6,58.2c-0.8-4.1-1.3-8.4-1.3-12.7c0-30.6,24.8-55.6,55.6-55.6c16,0,30.5,6.8,40.6,17.6
		c12.6-2.5,24.7-7.1,35.3-13.4c-4.1,12.9-12.9,23.7-24.5,30.6c11.2-1.2,22-4.3,32-8.6C337.7,140.8,328.3,150.6,317.4,158.5z"/>
</g>
</svg>
